<svg xmlns="http://www.w3.org/2000/svg" width="234" height="50" viewBox="0 0 223 24" fill="none">
<g style="mix-blend-mode:luminosity" clip-path="url(#clip0_788_4720)">
<path fill-rule="evenodd" clip-rule="evenodd" d="M147.508 16.9665C147.508 17.0232 147.537 17.0798 147.594 17.1365C147.622 17.1931 147.68 17.2215 147.765 17.2498H150.054V19.9127H147.651C147.107 19.9127 146.65 19.771 146.221 19.5161C145.791 19.2611 145.448 18.9212 145.191 18.4962C144.933 18.0713 144.79 17.5897 144.79 17.0798V4.16211H147.508V16.9665ZM85.5116 12.6323H83.3946V4.19043H80.6767V19.8843H83.3946V15.3235H85.5116L89.7744 19.8843H92.6353V19.1478L87.8862 13.9637L92.6639 8.77961V8.07141H89.7744L85.5116 12.6323ZM50.1798 11.8964C50.237 11.7548 50.2942 11.5848 50.3228 11.4148C50.3514 11.2449 50.3514 11.0749 50.3514 10.9049V8.04378C50.3514 7.53387 50.2084 7.05229 49.9509 6.62736C49.722 6.20244 49.3787 5.8625 48.921 5.57921C48.4919 5.32426 48.0055 5.18262 47.4905 5.18262H36.1328V19.8567H48.0913C48.6063 19.8567 49.0926 19.715 49.5218 19.4601C49.9509 19.2051 50.3228 18.8652 50.5803 18.4403C50.8378 18.0153 50.9808 17.5338 50.9808 17.0239V13.8794C50.9808 13.5395 50.895 13.1995 50.752 12.8596C50.6089 12.5196 50.4087 12.208 50.1798 11.8964ZM48.2344 16.9389C48.2344 16.9955 48.2058 17.0522 48.1485 17.1088C48.0913 17.1655 48.0341 17.1938 47.9769 17.1938H39.1081C39.0509 17.1938 38.9937 17.1655 38.9364 17.1088C38.8792 17.0522 38.8506 16.9955 38.8506 16.9389V14.2477V14.0494V10.82V9.88512V8.15709C38.8506 8.10043 38.8792 8.04378 38.9364 7.98712C38.9937 7.93046 39.0509 7.90213 39.1081 7.90213H47.3761C47.4333 7.90213 47.4905 7.93046 47.5478 7.98712C47.5764 8.04378 47.605 8.10043 47.605 8.15709V10.82C47.605 10.8766 47.5764 10.9333 47.5478 10.9899C47.5191 11.0466 47.4619 11.0749 47.3761 11.0749H42.0548L39.3084 13.7944H47.9483C48.0055 13.7944 48.0913 13.8228 48.1199 13.8794C48.1772 13.9361 48.2058 13.9927 48.2058 14.0494V16.9389H48.2344ZM63.8553 8.43957C63.4261 8.18461 62.9398 8.04297 62.4248 8.04297H53.1269V10.7058H62.3104C62.3676 10.7058 62.4248 10.7342 62.482 10.7908C62.5393 10.8475 62.5679 10.9041 62.5679 10.9608V12.6038H53.1269V17.0514C53.1269 17.5613 53.2413 18.0429 53.4988 18.4678C53.7563 18.8927 54.0996 19.2326 54.5287 19.4876C54.9579 19.7426 55.4442 19.8842 55.9592 19.8842H65.2571V10.8758C65.2571 10.3659 65.1427 9.88431 64.8852 9.45938C64.6277 9.03446 64.2844 8.69452 63.8553 8.43957ZM62.5393 17.2213H56.0736C56.0164 17.2213 55.9592 17.193 55.902 17.1364C55.8448 17.0797 55.8161 17.023 55.8161 16.9664V15.0401H62.5393V17.2213ZM76.1856 8.04297C76.7005 8.04297 77.1869 8.18461 77.616 8.43957C78.0452 8.69452 78.3885 9.03446 78.6459 9.40273C78.9034 9.82765 79.0465 10.3092 79.0465 10.8191V11.2724H76.3286V10.9325C76.3286 10.8758 76.3 10.8191 76.2428 10.7625C76.1856 10.7058 76.1283 10.6775 76.0711 10.6775H69.8344C69.7772 10.6775 69.7199 10.7058 69.6627 10.7625C69.6055 10.8191 69.5769 10.8758 69.5769 10.9325V12.3489C69.5769 12.4055 69.6055 12.4622 69.6627 12.5188C69.7199 12.5755 69.7772 12.6038 69.8344 12.6038H76.1856C76.7005 12.6038 77.1869 12.7455 77.616 13.0004C78.0452 13.2554 78.3885 13.5953 78.6459 14.0202C78.9034 14.4452 79.0465 14.9267 79.0465 15.4367V17.0797C79.0465 17.6179 78.9034 18.0712 78.6459 18.4961C78.3885 18.921 78.0452 19.261 77.616 19.5159C77.2155 19.7709 76.7291 19.9125 76.1856 19.9125H69.7771C69.2336 19.9125 68.7758 19.7709 68.3467 19.5159C67.9176 19.261 67.5743 18.921 67.3168 18.4961C67.0593 18.0712 66.9163 17.5896 66.9163 17.0797V16.6264H69.6055V17.023C69.6055 17.0797 69.6341 17.1364 69.6913 17.193C69.7485 17.2497 69.8058 17.278 69.863 17.278H76.0997C76.157 17.278 76.2142 17.2497 76.2714 17.193C76.3286 17.1364 76.3572 17.0797 76.3572 17.023V15.6066C76.3572 15.55 76.3286 15.4933 76.2714 15.4367C76.2142 15.38 76.157 15.3517 76.0997 15.3517H69.7485C69.205 15.3517 68.7472 15.21 68.3181 14.9551C67.889 14.7001 67.5456 14.3602 67.2882 13.9353C67.0307 13.5103 66.8876 13.0288 66.8876 12.5188V10.8758C66.8876 10.3376 67.0307 9.88431 67.2882 9.45938C67.5456 9.03446 67.889 8.69452 68.3181 8.43957C68.7472 8.18461 69.2336 8.04297 69.7485 8.04297H76.1856ZM103.192 8.04293C103.707 8.04293 104.194 8.18457 104.623 8.43952C105.052 8.69448 105.395 9.03442 105.681 9.45934C105.939 9.88427 106.053 10.3658 106.053 10.8758V15.295H97.442L99.8737 12.8871H103.336V10.9607C103.336 10.9041 103.307 10.8474 103.25 10.7908C103.192 10.7341 103.135 10.7058 103.078 10.7058H96.8698C96.8126 10.7058 96.7554 10.7341 96.6981 10.7908C96.6409 10.8474 96.6123 10.9041 96.6123 10.9607V11.8106V12.9437V15.3516V16.1732V16.9947C96.6123 17.0513 96.6409 17.108 96.6981 17.1646C96.7554 17.2213 96.8126 17.2496 96.8698 17.2496H106.053V19.9125H96.7554C96.2118 19.9125 95.754 19.7708 95.3249 19.5159C94.8958 19.2609 94.5525 18.921 94.295 18.4961C94.0375 18.0711 93.8945 17.5896 93.8945 17.0797V10.8758C93.8945 10.3375 94.0375 9.88427 94.295 9.45934C94.5525 9.03442 94.8958 8.69448 95.3249 8.43952C95.754 8.18457 96.2404 8.04293 96.7554 8.04293H103.192ZM110.889 4.41699H108.199V17.0514C108.199 17.5613 108.342 18.0429 108.6 18.4678C108.857 18.8928 109.201 19.2327 109.63 19.4877C110.059 19.7426 110.517 19.8843 111.06 19.8843H115.58V17.2214H111.175C111.117 17.2214 111.06 17.1931 111.003 17.1364C110.946 17.0797 110.917 17.0231 110.917 16.9664V10.7342H115.58V8.07135H110.917V4.41699H110.889ZM126.681 8.04308C127.196 8.04308 127.682 8.18472 128.111 8.43968C128.54 8.69463 128.884 9.03457 129.141 9.45949C129.399 9.88442 129.513 10.366 129.513 10.8759V17.0515C129.513 17.5897 129.399 18.043 129.141 18.4679C128.884 18.8928 128.54 19.2328 128.111 19.4877C127.682 19.7427 127.196 19.8843 126.681 19.8843H117.383V4.19043H120.072V7.90144V8.07141V10.9609V12.2357V16.9665C120.072 17.0232 120.101 17.0798 120.158 17.1365C120.215 17.1931 120.272 17.2214 120.33 17.2214H126.566C126.624 17.2214 126.681 17.1931 126.738 17.1365C126.795 17.0798 126.824 17.0232 126.824 16.9665V10.9609C126.824 10.9042 126.795 10.8476 126.738 10.7909C126.681 10.7343 126.624 10.7059 126.566 10.7059H121.617L124.306 8.04308H126.681ZM141.672 8.43957C141.243 8.18461 140.756 8.04297 140.241 8.04297H130.943V10.7058H140.127C140.184 10.7058 140.241 10.7342 140.299 10.7908C140.356 10.8475 140.384 10.9041 140.384 10.9608V12.6038H130.943V17.0514C130.943 17.5613 131.058 18.0429 131.315 18.4678C131.573 18.8927 131.916 19.2326 132.345 19.4876C132.774 19.7426 133.261 19.8842 133.776 19.8842H143.074V10.8758C143.074 10.3659 142.959 9.88431 142.702 9.45938C142.444 9.03446 142.101 8.69452 141.672 8.43957ZM140.356 17.2213H133.89C133.833 17.2213 133.776 17.193 133.718 17.1364C133.661 17.0797 133.633 17.023 133.633 16.9664V15.0401H140.356V17.2213ZM154.431 17.1365C154.373 17.0798 154.345 17.0232 154.345 16.9665V4.16211H151.627V17.0798C151.627 17.5897 151.77 18.0713 152.028 18.4962C152.285 18.9212 152.628 19.2611 153.057 19.5161C153.487 19.771 153.944 19.9127 154.488 19.9127H156.891V17.2498H154.602C154.545 17.2215 154.488 17.1931 154.431 17.1365ZM158.751 8.07227L163.472 16.6557L168.164 8.07227H171.282L164.673 19.8852H162.213L155.633 8.07227H158.751ZM182.64 8.43952C182.21 8.18457 181.724 8.04293 181.209 8.04293H174.772C174.257 8.04293 173.771 8.18457 173.342 8.43952C172.912 8.69448 172.569 9.03442 172.312 9.45934C172.054 9.88427 171.911 10.3375 171.911 10.8758V17.0797C171.911 17.5896 172.054 18.0711 172.312 18.4961C172.569 18.921 172.912 19.2609 173.342 19.5159C173.771 19.7708 174.228 19.9125 174.772 19.9125H184.041V17.2496H174.858C174.801 17.2496 174.743 17.2213 174.686 17.1646C174.629 17.108 174.6 17.0513 174.6 16.9947V16.1732V15.3516V12.9437V11.8106V10.9607C174.6 10.9041 174.629 10.8474 174.686 10.7908C174.743 10.7341 174.801 10.7058 174.858 10.7058H181.095C181.152 10.7058 181.209 10.7341 181.266 10.7908C181.324 10.8474 181.352 10.9041 181.352 10.9607V12.8871H177.89L175.459 15.295H184.041V10.8758C184.041 10.3658 183.927 9.88427 183.669 9.45934C183.412 9.03442 183.069 8.69448 182.64 8.43952ZM186.473 9.45938C186.73 9.03446 187.074 8.69452 187.503 8.43957C187.932 8.18461 188.39 8.0713 188.905 8.04297H195.542V10.7058H189.019C188.962 10.7058 188.905 10.7342 188.847 10.7908C188.79 10.8475 188.762 10.9041 188.762 10.9608V19.8842H186.072V10.8758C186.072 10.3376 186.215 9.88431 186.473 9.45938ZM207.759 8.43957C207.33 8.18461 206.843 8.04297 206.328 8.04297H199.891C199.376 8.04297 198.89 8.18461 198.461 8.43957C198.032 8.69452 197.688 9.03446 197.431 9.45938C197.173 9.88431 197.03 10.3376 197.03 10.8758V12.5188C197.03 13.0288 197.173 13.5103 197.431 13.9353C197.688 14.3602 198.032 14.7001 198.461 14.9551C198.89 15.21 199.348 15.3517 199.891 15.3517H206.242C206.3 15.3517 206.357 15.38 206.414 15.4367C206.471 15.4933 206.5 15.55 206.5 15.6066V17.023C206.5 17.0797 206.471 17.1364 206.414 17.193C206.357 17.2497 206.3 17.278 206.242 17.278H200.006C199.948 17.278 199.891 17.2497 199.834 17.193C199.777 17.1364 199.748 17.0797 199.748 17.023V16.6264H197.059V17.0797C197.059 17.5896 197.202 18.0712 197.459 18.4961C197.717 18.921 198.06 19.261 198.489 19.5159C198.919 19.7709 199.376 19.9125 199.92 19.9125H206.357C206.9 19.9125 207.387 19.7709 207.787 19.5159C208.216 19.261 208.56 18.921 208.817 18.4961C209.075 18.0712 209.218 17.6179 209.218 17.0797V15.4367C209.218 14.9267 209.075 14.4452 208.817 14.0202C208.56 13.5953 208.216 13.2554 207.787 13.0004C207.358 12.7455 206.872 12.6038 206.357 12.6038H200.006C199.948 12.6038 199.891 12.5755 199.834 12.5188C199.777 12.4622 199.748 12.4055 199.748 12.3489V10.9325C199.748 10.8758 199.777 10.8191 199.834 10.7625C199.891 10.7058 199.948 10.6775 200.006 10.6775H206.242C206.3 10.6775 206.357 10.7058 206.414 10.7625C206.471 10.8191 206.5 10.8758 206.5 10.9325V11.2724H209.218V10.8191C209.218 10.3092 209.075 9.82765 208.817 9.40273C208.531 9.03446 208.188 8.69452 207.759 8.43957ZM213.509 12.9154V15.3233V16.1732V16.9947C213.509 17.0514 213.537 17.108 213.594 17.1647C213.652 17.2213 213.709 17.2497 213.766 17.2497H222.95V19.9125H213.68C213.137 19.9125 212.679 19.7709 212.25 19.5159C211.821 19.261 211.477 18.921 211.22 18.4961C210.962 18.0712 210.819 17.5896 210.819 17.0797V10.8758C210.819 10.3376 210.962 9.88431 211.22 9.45938C211.477 9.03446 211.821 8.69452 212.25 8.43957C212.679 8.18461 213.165 8.04297 213.68 8.04297H220.117C220.632 8.04297 221.119 8.18461 221.548 8.43957C221.977 8.69452 222.32 9.03446 222.578 9.45938C222.835 9.88431 222.95 10.3659 222.95 10.8758V15.295H214.367L216.799 12.8871H220.26V10.9608C220.26 10.9041 220.232 10.8475 220.175 10.7908C220.117 10.7342 220.06 10.7058 220.003 10.7058H213.766C213.709 10.7058 213.652 10.7342 213.594 10.7908C213.537 10.8475 213.509 10.9041 213.509 10.9608V11.8106V12.9154Z" fill="white"/>
<path d="M17.0349 1.9925L17.4261 2.26088C18.4494 2.94675 19.3523 3.81155 20.1048 4.7658C20.6766 5.51131 20.9174 6.43575 20.7669 7.33036C20.6465 8.01623 20.3455 8.46354 19.7737 8.76174C19.6232 8.8512 19.5931 8.8512 19.563 8.8512C19.563 8.8512 19.5329 8.82138 19.4727 8.64246C18.6902 5.86916 17.1854 3.66245 15.0786 2.02232C15.0184 1.96268 13.5737 0.829501 11.3466 0.11381C10.865 -0.035292 9.84171 -0.00547249 9.42035 0.024348L8.06598 0.17345L9.42035 0.322553C9.45045 0.322553 11.9786 0.650578 14.0553 2.26088C16.0417 3.72208 17.396 5.7797 18.1485 8.61264C18.1786 8.7021 18.1485 8.82138 18.0883 8.88103C18.0281 8.97049 17.9077 9.00031 17.8174 8.97049C17.396 8.91084 16.9747 8.76174 16.5533 8.52318C15.199 7.74785 13.8747 6.88305 12.6106 6.01826C12.099 5.66041 11.5873 5.30257 11.0456 4.97454L10.7446 4.7658C10.0825 4.31849 9.39025 3.87119 8.66792 3.57298L8.57763 3.54316C6.47085 2.94675 5.77862 3.03621 5.05629 3.1555L4.84561 3.18532C3.43105 3.36424 1.20388 5.09383 1.11359 5.15347L0 6.01826L1.26407 5.42185C5.20677 3.54316 8.48734 4.9149 8.51744 4.9149L8.57763 4.94472C8.66792 4.97454 8.72812 5.00436 8.81841 5.06401C10.0223 5.69024 11.1359 6.52521 12.2194 7.30054C12.731 7.65839 13.2427 8.04605 13.7543 8.4039C14.6873 9.05995 15.6805 9.716 16.764 10.2229C17.7873 10.7001 18.6601 10.8492 19.5028 10.7001C20.7067 10.4913 21.6698 9.17923 21.7601 7.77767C22.0009 8.37408 22.2717 9.17923 22.3921 9.716C22.4523 9.98438 22.4824 10.2826 22.5125 10.551C22.5426 10.7597 22.5727 10.9685 22.6028 11.1772C22.6329 11.3263 22.6028 11.3859 22.6028 11.4158C22.5727 11.4456 22.4824 11.4754 22.3319 11.4754C20.0446 11.5649 17.7572 11.6543 15.4397 11.7438L13.6941 11.8034H13.664C13.5737 11.8034 13.3931 11.8034 13.2728 11.9824L13.1524 12.1911L13.8145 12.2507C14.1155 12.2806 14.4164 12.2806 14.7174 12.3104L17.5766 12.4297C19.1718 12.4893 20.7368 12.5489 22.3319 12.6384C22.362 12.6384 22.4222 12.6384 22.4523 12.6384C22.4824 12.6384 22.5727 12.6384 22.6028 12.6384C22.6028 12.6384 22.6329 12.6682 22.6028 12.7577C22.4824 14.2189 22.1815 15.5012 21.6698 16.6642L21.6096 16.2467C21.4892 15.1433 21.098 14.368 20.4358 13.9207C19.7737 13.4734 18.9009 13.3839 17.8174 13.6523C16.6135 13.9505 15.5902 14.6364 14.6873 15.2328C13.8747 15.7696 13.0922 16.3361 12.3097 16.8729C11.6174 17.35 10.8951 17.857 10.1728 18.3341C9.57083 18.7218 9.05918 19.0498 8.51744 19.2884C8.27666 19.3778 5.08639 20.6005 1.26407 18.7814L0 18.185L1.11359 19.0498C1.20388 19.1094 3.46115 20.839 4.84561 21.018C5.71842 21.1372 6.32036 21.1671 8.63783 20.511C9.29996 20.2724 9.96209 19.9146 10.5941 19.4971C11.1359 19.1393 11.6776 18.7814 12.2194 18.3938C13.5737 17.4693 14.9883 16.5449 16.4329 15.7099C16.9145 15.4117 17.4562 15.2626 18.0582 15.203C18.0883 15.203 18.1184 15.203 18.1485 15.2328C18.1485 15.2328 18.1786 15.2626 18.1786 15.2924C18.0883 15.7994 17.9378 16.3063 17.7873 16.7536C17.0349 18.8411 15.9213 20.4514 14.3262 21.7038L14.2961 21.7336C12.2194 23.3141 9.72132 23.6422 9.69122 23.6422L8.33686 23.7913L10.2029 23.9702C10.3233 23.9702 10.4737 24 10.5941 24C10.9553 24 11.3165 23.9404 11.6475 23.8509C13.8747 23.165 15.3494 22.002 15.4096 21.9424C16.9747 20.6899 18.1786 18.9902 19.0213 16.9624C19.2621 16.3958 19.4125 15.9187 19.5028 15.5012C19.5329 15.3819 19.563 15.3521 19.563 15.3521C19.5931 15.3521 19.6232 15.3819 19.7135 15.4117C20.1951 15.6204 20.5261 15.9783 20.6465 16.3958C20.9776 17.4395 20.9174 18.2148 20.3756 18.9305C19.563 20.0339 18.5999 20.9583 17.5465 21.7038L17.1553 21.9722H25.5824V1.9925H17.0349Z" fill="white"/>
</g>
<defs>
<clipPath id="clip0_788_4720">
<rect width="223" height="24" fill="white"/>
</clipPath>
</defs>
</svg>