<svg xmlns="http://www.w3.org/2000/svg" width="234" height="50" viewBox="0 0 2398 362" fill="none">
<path d="M0.408203 187.223C0.408203 170.107 2.43099 153.691 6.47656 137.976C10.6777 122.104 16.5905 107.323 24.2148 93.6299C31.8392 79.9372 41.0195 67.4893 51.7559 56.2861C62.6478 45.083 74.7845 35.5137 88.166 27.5781C101.548 19.487 116.018 13.263 131.578 8.90625C147.294 4.54948 163.787 2.37109 181.059 2.37109C194.751 2.37109 206.732 3.30469 217.002 5.17188C227.427 6.88346 236.452 9.13965 244.076 11.9404C251.856 14.5856 258.313 17.542 263.448 20.8096C268.739 24.0771 273.095 27.1891 276.519 30.1455C276.363 30.1455 276.285 30.6901 276.285 31.7793C276.285 34.1133 276.441 38.3923 276.752 44.6162C277.219 50.8402 277.686 57.7643 278.152 65.3887C278.775 73.013 279.242 80.793 279.553 88.7285C280.02 96.5085 280.253 103.277 280.253 109.034C280.253 109.968 279.942 111.057 279.319 112.302C278.697 113.391 277.141 113.936 274.651 113.936C273.251 113.936 271.539 113.702 269.517 113.235C266.249 112.302 262.126 110.201 257.146 106.934C252.167 103.51 246.332 100.009 239.642 96.4307C233.106 92.6963 225.715 89.4287 217.469 86.6279C209.378 83.6715 200.508 82.1934 190.861 82.1934C178.102 82.1934 166.51 84.7607 156.085 89.8955C145.66 94.8747 136.791 101.799 129.478 110.668C122.164 119.537 116.485 130.118 112.439 142.41C108.394 154.547 106.371 167.851 106.371 182.321C106.371 195.08 107.771 207.295 110.572 218.965C113.373 230.479 117.574 240.593 123.176 249.307C128.933 258.02 136.013 265.022 144.415 270.312C152.973 275.447 162.854 278.015 174.057 278.015C182.926 278.015 190.784 277.703 197.63 277.081C204.476 276.459 210.856 275.447 216.769 274.047C222.681 272.646 228.438 270.779 234.04 268.445C239.797 266.111 245.943 263.155 252.479 259.576C252.79 259.421 253.568 259.343 254.812 259.343C255.902 259.343 256.602 259.81 256.913 260.743C257.38 261.521 257.613 263.233 257.613 265.878V293.886C257.613 299.021 257.535 304.077 257.38 309.057C257.38 313.88 257.302 318.237 257.146 322.127C257.146 326.017 257.069 329.207 256.913 331.696C256.913 334.03 256.835 335.197 256.68 335.197C249.522 339.71 241.82 343.366 233.573 346.167C225.482 349.123 217.08 351.38 208.366 352.936C199.808 354.647 191.173 355.736 182.459 356.203C173.745 356.826 165.343 357.137 157.252 357.137C135.312 357.137 114.773 353.013 95.6348 344.767C76.4961 336.364 59.847 324.694 45.6875 309.757C31.6836 294.819 20.6361 276.925 12.5449 256.075C4.45378 235.225 0.408203 212.274 0.408203 187.223ZM510.272 37.6143C510.272 32.0127 510.739 28.2005 511.672 26.1777C512.761 23.9993 514.862 22.5212 517.974 21.7432L598.263 2.37109C600.286 1.7487 602.386 1.4375 604.565 1.4375C606.743 1.4375 608.221 2.1377 608.999 3.53809C609.777 4.78288 610.166 7.42806 610.166 11.4736L607.366 48.1172C606.588 58.8535 605.732 69.512 604.798 80.0928C603.865 90.6735 602.464 99.9316 600.597 107.867L596.396 141.01C595.151 150.812 593.984 161.471 592.895 172.985C591.806 184.344 590.639 197.103 589.394 211.263L578.424 326.328C578.269 327.729 577.957 329.129 577.491 330.529C577.024 331.93 576.012 332.941 574.456 333.563C573.367 334.03 570.8 335.042 566.754 336.598C562.864 338.154 558.196 339.943 552.75 341.966C547.304 343.989 541.469 346.089 535.245 348.268C529.021 350.602 523.109 352.702 517.507 354.569C511.906 356.437 506.926 357.993 502.57 359.237C498.213 360.482 495.256 361.104 493.7 361.104C491.522 361.104 489.577 360.482 487.866 359.237C486.31 358.148 485.532 355.97 485.532 352.702C485.532 333.875 486.621 314.658 488.799 295.053C490.977 275.292 492.922 255.686 494.634 236.236C494.945 234.058 495.023 232.035 494.867 230.168C494.867 228.301 495.023 226.278 495.334 224.1H409.91L400.341 326.328C400.185 327.729 399.874 329.129 399.408 330.529C399.096 331.774 398.085 332.785 396.373 333.563C395.751 333.875 392.639 335.042 387.037 337.064C381.591 338.932 375.212 341.188 367.899 343.833C360.741 346.323 353.584 348.812 346.426 351.302C339.424 353.947 334.056 355.97 330.322 357.37C328.454 358.148 326.12 358.926 323.32 359.704C320.674 360.638 318.029 361.104 315.384 361.104C313.206 361.104 311.261 360.482 309.549 359.237C307.993 357.993 307.215 355.736 307.215 352.469C307.215 345 307.449 336.52 307.915 327.028C308.538 317.381 309.238 307.345 310.016 296.92C310.794 286.339 311.727 275.525 312.817 264.478C313.906 253.43 314.995 242.538 316.084 231.802L316.551 225.033C303.948 225.033 294.767 224.722 289.01 224.1C283.408 223.322 280.608 221.454 280.608 218.498C280.608 216.475 281.775 213.83 284.109 210.562C287.221 206.206 290.799 200.993 294.845 194.925C299.046 188.701 303.014 182.632 306.748 176.72C310.638 170.651 314.061 165.283 317.018 160.615C320.13 155.792 322.153 152.68 323.086 151.279L328.454 95.0303C328.454 94.7191 328.61 92.3851 328.921 88.0283C329.232 83.6715 329.621 78.5368 330.088 72.624C330.555 66.5557 331.022 60.3317 331.489 53.9521C332.111 47.5726 332.656 42.1266 333.122 37.6143C333.434 32.1683 333.823 28.3561 334.289 26.1777C334.912 23.9993 336.779 22.5212 339.891 21.7432L419.246 2.37109C421.269 1.7487 423.37 1.4375 425.548 1.4375C427.727 1.4375 429.205 2.1377 429.983 3.53809C430.761 4.78288 431.15 7.42806 431.15 11.4736C430.06 22.6768 429.205 32.8685 428.582 42.0488C427.96 51.2292 427.26 59.7871 426.482 67.7227C425.859 75.6582 425.159 83.2048 424.381 90.3623C423.603 97.5199 422.514 104.833 421.114 112.302L416.446 148.479L501.169 147.545C502.57 126.85 504.126 109.268 505.837 94.7969C507.549 80.3262 508.638 68.8896 509.105 60.4873C509.572 52.5518 509.883 46.8724 510.038 43.4492C510.194 40.026 510.272 38.0811 510.272 37.6143ZM637.128 352.469L648.798 192.824C652.688 139.298 655.567 100.009 657.434 74.958C659.301 49.9066 660.235 37.4587 660.235 37.6143C660.391 34.8135 660.546 32.4795 660.702 30.6123C660.857 28.7451 661.169 27.1891 661.635 25.9443C662.102 24.6995 662.725 23.766 663.503 23.1436C664.28 22.5212 665.447 22.0544 667.003 21.7432L747.759 2.37109C749.782 1.7487 751.883 1.4375 754.061 1.4375C756.239 1.4375 757.718 2.1377 758.496 3.53809C759.274 4.78288 759.663 7.42806 759.663 11.4736C758.573 21.1208 757.718 30.1455 757.095 38.5479C756.473 46.9502 755.928 54.9635 755.461 62.5879C755.15 70.2122 754.839 77.6032 754.528 84.7607C754.217 91.7627 753.828 98.7646 753.361 105.767C752.427 113.391 751.572 121.015 750.794 128.64C750.171 136.264 749.549 144.2 748.926 152.446C748.304 160.537 747.604 169.173 746.826 178.354C746.203 187.378 745.425 197.259 744.492 207.995L734.222 330.996C734.067 332.396 733.755 333.797 733.289 335.197C732.977 336.442 731.966 337.453 730.254 338.231C730.099 338.231 729.165 338.543 727.454 339.165C725.742 339.787 723.486 340.643 720.685 341.732C717.884 342.666 714.617 343.677 710.882 344.767C707.148 345.856 703.18 346.867 698.979 347.801C691.977 349.357 685.831 350.913 680.541 352.469C675.406 354.025 670.816 355.425 666.77 356.67C662.725 358.07 658.99 359.16 655.567 359.938C652.144 360.715 648.721 361.104 645.297 361.104C642.963 361.104 641.018 360.482 639.462 359.237C637.906 357.993 637.128 355.736 637.128 352.469ZM912.193 10.54C912.038 14.2744 911.726 18.9424 911.26 24.5439C910.793 29.9899 910.248 35.8249 909.626 42.0488C909.159 48.1172 908.537 54.3411 907.759 60.7207C907.136 66.9447 906.514 72.7018 905.891 77.9922C905.425 83.2826 905.036 87.8727 904.724 91.7627C904.413 95.4971 904.258 97.9089 904.258 98.998C903.635 108.645 902.935 117.592 902.157 125.839C901.535 134.086 900.834 142.255 900.056 150.346C899.278 158.437 898.423 166.839 897.489 175.553C896.711 184.111 895.855 193.602 894.922 204.027C893.988 214.452 892.899 226.045 891.654 238.804C890.565 251.563 889.398 266.189 888.153 282.683L984.78 272.88C989.137 272.413 992.716 272.18 995.516 272.18C998.94 272.18 1001.04 272.724 1001.82 273.813C1002.75 274.903 1003.22 276.614 1003.22 278.948C1003.22 279.259 1003.14 279.726 1002.99 280.349C1002.83 280.815 1002.44 281.827 1001.82 283.383C1001.35 284.939 1000.57 287.195 999.484 290.151C998.551 293.108 997.228 297.231 995.516 302.521L990.382 317.926C988.67 322.905 987.036 327.417 985.48 331.463C984.08 335.353 982.291 338.776 980.112 341.732C977.934 344.533 975.211 346.789 971.943 348.501C968.676 350.213 964.474 351.302 959.34 351.769C956.072 352.08 951.638 352.313 946.036 352.469C940.434 352.78 933.977 353.013 926.664 353.169C919.351 353.48 911.415 353.791 902.857 354.103C894.455 354.414 885.819 354.803 876.95 355.27C868.236 355.581 859.445 355.736 850.576 355.736C841.707 355.892 833.305 356.048 825.369 356.203C817.433 356.359 810.12 356.514 803.43 356.67C796.739 356.826 791.215 356.981 786.858 357.137C782.813 357.137 779.856 356.826 777.989 356.203C776.277 355.581 775.422 354.569 775.422 353.169C775.422 351.457 775.966 348.968 777.055 345.7C778.145 342.588 779.545 339.087 781.257 335.197C782.968 331.152 784.835 327.028 786.858 322.827C789.037 318.47 791.137 314.269 793.16 310.224L799.462 226.9C800.707 212.741 801.951 198.348 803.196 183.722C804.441 169.095 805.53 154.936 806.464 141.243L810.431 79.3926C811.365 64.7663 811.987 54.1855 812.299 47.6504C812.61 40.9596 812.765 37.3031 812.765 36.6807C813.077 33.8799 813.31 31.5459 813.466 29.6787C813.621 27.8115 813.855 26.2555 814.166 25.0107C814.633 23.766 815.255 22.8324 816.033 22.21C816.811 21.5876 817.978 21.1208 819.534 20.8096L901.457 1.4375C903.168 0.815104 905.269 0.503906 907.759 0.503906C909.47 0.503906 910.637 1.0485 911.26 2.1377C912.038 3.07129 912.427 4.93848 912.427 7.73926C912.427 8.05046 912.349 8.51725 912.193 9.13965C912.193 9.60645 912.193 10.0732 912.193 10.54ZM1145.95 10.54C1145.79 14.2744 1145.48 18.9424 1145.01 24.5439C1144.55 29.9899 1144 35.8249 1143.38 42.0488C1142.91 48.1172 1142.29 54.3411 1141.51 60.7207C1140.89 66.9447 1140.27 72.7018 1139.64 77.9922C1139.18 83.2826 1138.79 87.8727 1138.48 91.7627C1138.17 95.4971 1138.01 97.9089 1138.01 98.998C1137.39 108.645 1136.69 117.592 1135.91 125.839C1135.29 134.086 1134.59 142.255 1133.81 150.346C1133.03 158.437 1132.18 166.839 1131.24 175.553C1130.46 184.111 1129.61 193.602 1128.67 204.027C1127.74 214.452 1126.65 226.045 1125.41 238.804C1124.32 251.563 1123.15 266.189 1121.91 282.683L1218.53 272.88C1222.89 272.413 1226.47 272.18 1229.27 272.18C1232.69 272.18 1234.79 272.724 1235.57 273.813C1236.51 274.903 1236.97 276.614 1236.97 278.948C1236.97 279.259 1236.89 279.726 1236.74 280.349C1236.58 280.815 1236.19 281.827 1235.57 283.383C1235.1 284.939 1234.33 287.195 1233.24 290.151C1232.3 293.108 1230.98 297.231 1229.27 302.521L1224.13 317.926C1222.42 322.905 1220.79 327.417 1219.23 331.463C1217.83 335.353 1216.04 338.776 1213.87 341.732C1211.69 344.533 1208.96 346.789 1205.7 348.501C1202.43 350.213 1198.23 351.302 1193.09 351.769C1189.83 352.08 1185.39 352.313 1179.79 352.469C1174.19 352.78 1167.73 353.013 1160.42 353.169C1153.1 353.48 1145.17 353.791 1136.61 354.103C1128.21 354.414 1119.57 354.803 1110.7 355.27C1101.99 355.581 1093.2 355.736 1084.33 355.736C1075.46 355.892 1067.06 356.048 1059.12 356.203C1051.19 356.359 1043.87 356.514 1037.18 356.67C1030.49 356.826 1024.97 356.981 1020.61 357.137C1016.57 357.137 1013.61 356.826 1011.74 356.203C1010.03 355.581 1009.17 354.569 1009.17 353.169C1009.17 351.457 1009.72 348.968 1010.81 345.7C1011.9 342.588 1013.3 339.087 1015.01 335.197C1016.72 331.152 1018.59 327.028 1020.61 322.827C1022.79 318.47 1024.89 314.269 1026.91 310.224L1033.21 226.9C1034.46 212.741 1035.7 198.348 1036.95 183.722C1038.19 169.095 1039.28 154.936 1040.22 141.243L1044.18 79.3926C1045.12 64.7663 1045.74 54.1855 1046.05 47.6504C1046.36 40.9596 1046.52 37.3031 1046.52 36.6807C1046.83 33.8799 1047.06 31.5459 1047.22 29.6787C1047.37 27.8115 1047.61 26.2555 1047.92 25.0107C1048.39 23.766 1049.01 22.8324 1049.79 22.21C1050.56 21.5876 1051.73 21.1208 1053.29 20.8096L1135.21 1.4375C1136.92 0.815104 1139.02 0.503906 1141.51 0.503906C1143.22 0.503906 1144.39 1.0485 1145.01 2.1377C1145.79 3.07129 1146.18 4.93848 1146.18 7.73926C1146.18 8.05046 1146.1 8.51725 1145.95 9.13965C1145.95 9.60645 1145.95 10.0732 1145.95 10.54ZM1394.87 324.461C1394.09 326.484 1393.31 328.429 1392.54 330.296C1391.91 332.163 1391.06 333.875 1389.97 335.431C1388.88 336.987 1387.48 338.387 1385.77 339.632C1384.21 340.877 1382.19 341.888 1379.7 342.666C1369.9 345.778 1360.17 348.423 1350.52 350.602C1340.88 352.936 1331.15 355.736 1321.35 359.004C1319.48 359.626 1317.85 360.093 1316.45 360.404C1315.05 360.715 1313.73 360.871 1312.48 360.871C1309.68 360.871 1307.66 360.171 1306.41 358.771C1305.17 357.37 1304.23 355.581 1303.61 353.402L1223.79 35.9805C1222.54 31.9349 1221.92 28.5895 1221.92 25.9443C1221.92 22.5212 1223.01 19.7204 1225.19 17.542C1227.37 15.208 1230.87 13.3408 1235.69 11.9404C1240.67 10.3844 1246.97 8.98405 1254.6 7.73926C1262.38 6.49447 1271.87 5.09408 1283.07 3.53809C1288.52 2.76009 1293.11 2.21549 1296.84 1.9043C1300.58 1.4375 1303.77 1.2041 1306.41 1.2041C1310.92 1.2041 1313.88 1.9821 1315.28 3.53809C1316.84 4.93848 1318.24 7.19466 1319.48 10.3066L1364.06 203.094L1426.85 25.9443C1427.78 23.4548 1428.56 21.432 1429.18 19.876C1429.96 18.32 1431.28 16.9974 1433.15 15.9082C1435.17 14.6634 1438.13 13.4964 1442.02 12.4072C1446.06 11.1624 1451.82 9.76204 1459.29 8.20605C1470.96 5.71647 1480.61 3.92708 1488.23 2.83789C1495.85 1.7487 1502 1.2041 1506.67 1.2041C1512.58 1.2041 1516.39 1.9043 1518.1 3.30469C1519.97 4.70508 1520.91 6.72786 1520.91 9.37305C1521.06 10.4622 1520.83 11.6292 1520.21 12.874C1519.74 13.9632 1519.19 15.3636 1518.57 17.0752L1394.87 324.461ZM1522.19 352.469L1533.86 192.824C1537.75 139.298 1540.63 100.009 1542.5 74.958C1544.37 49.9066 1545.3 37.4587 1545.3 37.6143C1545.46 34.8135 1545.61 32.4795 1545.77 30.6123C1545.92 28.7451 1546.23 27.1891 1546.7 25.9443C1547.17 24.6995 1547.79 23.766 1548.57 23.1436C1549.35 22.5212 1550.51 22.0544 1552.07 21.7432L1632.82 2.37109C1634.85 1.7487 1636.95 1.4375 1639.13 1.4375C1641.3 1.4375 1642.78 2.1377 1643.56 3.53809C1644.34 4.78288 1644.73 7.42806 1644.73 11.4736C1643.64 21.1208 1642.78 30.1455 1642.16 38.5479C1641.54 46.9502 1640.99 54.9635 1640.53 62.5879C1640.22 70.2122 1639.9 77.6032 1639.59 84.7607C1639.28 91.7627 1638.89 98.7646 1638.43 105.767C1637.49 113.391 1636.64 121.015 1635.86 128.64C1635.24 136.264 1634.61 144.2 1633.99 152.446C1633.37 160.537 1632.67 169.173 1631.89 178.354C1631.27 187.378 1630.49 197.259 1629.56 207.995L1619.29 330.996C1619.13 332.396 1618.82 333.797 1618.35 335.197C1618.04 336.442 1617.03 337.453 1615.32 338.231C1615.16 338.231 1614.23 338.543 1612.52 339.165C1610.81 339.787 1608.55 340.643 1605.75 341.732C1602.95 342.666 1599.68 343.677 1595.95 344.767C1592.21 345.856 1588.25 346.867 1584.04 347.801C1577.04 349.357 1570.9 350.913 1565.61 352.469C1560.47 354.025 1555.88 355.425 1551.84 356.67C1547.79 358.07 1544.06 359.16 1540.63 359.938C1537.21 360.715 1533.79 361.104 1530.36 361.104C1528.03 361.104 1526.08 360.482 1524.53 359.237C1522.97 357.993 1522.19 355.736 1522.19 352.469ZM1797.26 10.54C1797.1 14.2744 1796.79 18.9424 1796.33 24.5439C1795.86 29.9899 1795.31 35.8249 1794.69 42.0488C1794.22 48.1172 1793.6 54.3411 1792.82 60.7207C1792.2 66.9447 1791.58 72.7018 1790.96 77.9922C1790.49 83.2826 1790.1 87.8727 1789.79 91.7627C1789.48 95.4971 1789.32 97.9089 1789.32 98.998C1788.7 108.645 1788 117.592 1787.22 125.839C1786.6 134.086 1785.9 142.255 1785.12 150.346C1784.34 158.437 1783.49 166.839 1782.55 175.553C1781.78 184.111 1780.92 193.602 1779.99 204.027C1779.05 214.452 1777.96 226.045 1776.72 238.804C1775.63 251.563 1774.46 266.189 1773.22 282.683L1869.85 272.88C1874.2 272.413 1877.78 272.18 1880.58 272.18C1884.01 272.18 1886.11 272.724 1886.88 273.813C1887.82 274.903 1888.28 276.614 1888.28 278.948C1888.28 279.259 1888.21 279.726 1888.05 280.349C1887.9 280.815 1887.51 281.827 1886.88 283.383C1886.42 284.939 1885.64 287.195 1884.55 290.151C1883.62 293.108 1882.29 297.231 1880.58 302.521L1875.45 317.926C1873.74 322.905 1872.1 327.417 1870.55 331.463C1869.15 335.353 1867.36 338.776 1865.18 341.732C1863 344.533 1860.28 346.789 1857.01 348.501C1853.74 350.213 1849.54 351.302 1844.41 351.769C1841.14 352.08 1836.7 352.313 1831.1 352.469C1825.5 352.78 1819.04 353.013 1811.73 353.169C1804.42 353.48 1796.48 353.791 1787.92 354.103C1779.52 354.414 1770.88 354.803 1762.02 355.27C1753.3 355.581 1744.51 355.736 1735.64 355.736C1726.77 355.892 1718.37 356.048 1710.43 356.203C1702.5 356.359 1695.19 356.514 1688.5 356.67C1681.8 356.826 1676.28 356.981 1671.92 357.137C1667.88 357.137 1664.92 356.826 1663.05 356.203C1661.34 355.581 1660.49 354.569 1660.49 353.169C1660.49 351.457 1661.03 348.968 1662.12 345.7C1663.21 342.588 1664.61 339.087 1666.32 335.197C1668.03 331.152 1669.9 327.028 1671.92 322.827C1674.1 318.47 1676.2 314.269 1678.23 310.224L1684.53 226.9C1685.77 212.741 1687.02 198.348 1688.26 183.722C1689.51 169.095 1690.6 154.936 1691.53 141.243L1695.5 79.3926C1696.43 64.7663 1697.05 54.1855 1697.36 47.6504C1697.68 40.9596 1697.83 37.3031 1697.83 36.6807C1698.14 33.8799 1698.38 31.5459 1698.53 29.6787C1698.69 27.8115 1698.92 26.2555 1699.23 25.0107C1699.7 23.766 1700.32 22.8324 1701.1 22.21C1701.88 21.5876 1703.04 21.1208 1704.6 20.8096L1786.52 1.4375C1788.23 0.815104 1790.33 0.503906 1792.82 0.503906C1794.54 0.503906 1795.7 1.0485 1796.33 2.1377C1797.1 3.07129 1797.49 4.93848 1797.49 7.73926C1797.49 8.05046 1797.41 8.51725 1797.26 9.13965C1797.26 9.60645 1797.26 10.0732 1797.26 10.54ZM2031.01 10.54C2030.86 14.2744 2030.55 18.9424 2030.08 24.5439C2029.61 29.9899 2029.07 35.8249 2028.44 42.0488C2027.98 48.1172 2027.36 54.3411 2026.58 60.7207C2025.95 66.9447 2025.33 72.7018 2024.71 77.9922C2024.24 83.2826 2023.85 87.8727 2023.54 91.7627C2023.23 95.4971 2023.08 97.9089 2023.08 98.998C2022.45 108.645 2021.75 117.592 2020.98 125.839C2020.35 134.086 2019.65 142.255 2018.88 150.346C2018.1 158.437 2017.24 166.839 2016.31 175.553C2015.53 184.111 2014.67 193.602 2013.74 204.027C2012.81 214.452 2011.72 226.045 2010.47 238.804C2009.38 251.563 2008.22 266.189 2006.97 282.683L2103.6 272.88C2107.96 272.413 2111.53 272.18 2114.34 272.18C2117.76 272.18 2119.86 272.724 2120.64 273.813C2121.57 274.903 2122.04 276.614 2122.04 278.948C2122.04 279.259 2121.96 279.726 2121.8 280.349C2121.65 280.815 2121.26 281.827 2120.64 283.383C2120.17 284.939 2119.39 287.195 2118.3 290.151C2117.37 293.108 2116.05 297.231 2114.34 302.521L2109.2 317.926C2107.49 322.905 2105.86 327.417 2104.3 331.463C2102.9 335.353 2101.11 338.776 2098.93 341.732C2096.75 344.533 2094.03 346.789 2090.76 348.501C2087.49 350.213 2083.29 351.302 2078.16 351.769C2074.89 352.08 2070.46 352.313 2064.85 352.469C2059.25 352.78 2052.8 353.013 2045.48 353.169C2038.17 353.48 2030.23 353.791 2021.68 354.103C2013.27 354.414 2004.64 354.803 1995.77 355.27C1987.06 355.581 1978.26 355.736 1969.39 355.736C1960.53 355.892 1952.12 356.048 1944.19 356.203C1936.25 356.359 1928.94 356.514 1922.25 356.67C1915.56 356.826 1910.03 356.981 1905.68 357.137C1901.63 357.137 1898.68 356.826 1896.81 356.203C1895.1 355.581 1894.24 354.569 1894.24 353.169C1894.24 351.457 1894.79 348.968 1895.87 345.7C1896.96 342.588 1898.36 339.087 1900.08 335.197C1901.79 331.152 1903.65 327.028 1905.68 322.827C1907.86 318.47 1909.96 314.269 1911.98 310.224L1918.28 226.9C1919.53 212.741 1920.77 198.348 1922.01 183.722C1923.26 169.095 1924.35 154.936 1925.28 141.243L1929.25 79.3926C1930.18 64.7663 1930.81 54.1855 1931.12 47.6504C1931.43 40.9596 1931.58 37.3031 1931.58 36.6807C1931.9 33.8799 1932.13 31.5459 1932.28 29.6787C1932.44 27.8115 1932.67 26.2555 1932.98 25.0107C1933.45 23.766 1934.07 22.8324 1934.85 22.21C1935.63 21.5876 1936.8 21.1208 1938.35 20.8096L2020.28 1.4375C2021.99 0.815104 2024.09 0.503906 2026.58 0.503906C2028.29 0.503906 2029.46 1.0485 2030.08 2.1377C2030.86 3.07129 2031.25 4.93848 2031.25 7.73926C2031.25 8.05046 2031.17 8.51725 2031.01 9.13965C2031.01 9.60645 2031.01 10.0732 2031.01 10.54ZM2342.02 151.279C2341.4 153.458 2340.23 156.57 2338.52 160.615C2336.81 164.505 2334.78 168.94 2332.45 173.919C2330.27 178.898 2327.86 184.266 2325.22 190.023C2322.73 195.625 2320.24 201.304 2317.75 207.062C2316.81 209.24 2315.96 210.874 2315.18 211.963C2314.4 212.896 2313.16 213.597 2311.44 214.063C2309.73 214.53 2307.32 214.841 2304.21 214.997C2301.25 214.997 2297.05 215.075 2291.61 215.23L2259.16 215.931L2252.63 287.351H2372.36V296.453C2372.05 296.764 2370.73 298.865 2368.39 302.755C2366.06 306.489 2363.34 311.002 2360.23 316.292C2357.11 321.582 2353.85 326.951 2350.42 332.396C2347 337.687 2344.12 341.966 2341.79 345.233C2340.23 348.034 2338.44 350.213 2336.42 351.769C2334.4 353.48 2332.14 354.725 2329.65 355.503C2327.32 356.281 2324.67 356.748 2321.71 356.903C2318.91 357.059 2315.8 357.137 2312.38 357.137C2298.37 357.137 2283.75 356.826 2268.5 356.203C2253.41 355.581 2238.31 354.803 2223.22 353.869C2208.13 352.936 2193.35 351.846 2178.87 350.602C2164.56 349.512 2151.26 348.345 2138.96 347.101C2137.87 346.945 2136.86 346.323 2135.93 345.233C2135.15 344.144 2134.76 342.899 2134.76 341.499C2134.14 341.499 2134.53 340.176 2135.93 337.531C2137.49 334.886 2139.59 331.463 2142.23 327.262C2144.88 323.061 2147.75 318.315 2150.87 313.024C2154.13 307.578 2157.25 302.132 2160.2 296.687L2163.94 244.172C2164.56 235.303 2165.03 228.69 2165.34 224.333C2165.8 219.976 2166.04 217.642 2166.04 217.331C2156.7 217.175 2149.7 216.709 2145.03 215.931C2140.52 215.153 2138.26 213.441 2138.26 210.796C2138.26 209.551 2139.35 207.217 2141.53 203.794C2143.86 200.371 2146.67 196.481 2149.93 192.124C2153.2 187.612 2156.62 182.944 2160.2 178.12C2163.94 173.297 2167.2 168.862 2170.01 164.816L2175.84 85.4609H2175.14C2171.72 85.6165 2168.6 85.7721 2165.8 85.9277C2163 85.9277 2160.44 85.9277 2158.1 85.9277C2150.63 85.9277 2145.27 85.5387 2142 84.7607C2138.89 83.8271 2137.33 82.1934 2137.33 79.8594C2137.33 78.7702 2138.26 76.514 2140.13 73.0908C2142 69.6676 2144.33 65.7777 2147.13 61.4209C2149.93 56.9085 2152.89 52.2406 2156 47.417C2159.11 42.4378 2161.91 37.8477 2164.4 33.6465L2178.41 9.83984H2275.97L2391.03 1.4375C2391.19 1.4375 2391.58 1.5153 2392.2 1.6709C2392.98 1.6709 2393.76 1.9043 2394.53 2.37109C2395.31 2.68229 2396.01 3.30469 2396.64 4.23828C2397.41 5.17188 2397.8 6.49447 2397.8 8.20605L2394.3 20.3428C2393.21 23.766 2391.89 27.4225 2390.33 31.3125C2388.78 35.0469 2387.07 38.9368 2385.2 42.9824L2374.93 70.0566C2373.84 72.7018 2372.6 74.7246 2371.19 76.125C2369.79 77.5254 2366.84 78.3034 2362.33 78.459C2350.5 78.7702 2337.27 79.3148 2322.65 80.0928C2308.18 80.7152 2291.53 81.3376 2272.7 81.96C2272.08 84.1383 2271.77 85.9277 2271.77 87.3281C2271.77 88.5729 2271.61 91.0625 2271.3 94.7969L2270.13 105.533C2269.82 110.512 2269.36 115.881 2268.73 121.638C2268.11 127.395 2267.33 134.475 2266.4 142.877C2274.33 142.566 2282.04 142.255 2289.51 141.943C2297.13 141.632 2304.05 141.399 2310.28 141.243C2316.5 140.932 2321.87 140.699 2326.38 140.543C2331.05 140.387 2334.32 140.31 2336.19 140.31C2337.43 140.31 2338.83 140.776 2340.39 141.71C2341.94 142.644 2342.72 144.433 2342.72 147.078C2342.72 148.323 2342.49 149.723 2342.02 151.279Z" fill="white"/>
</svg>