<svg xmlns="http://www.w3.org/2000/svg" xmlns:v="https://vecta.io/nano" width="234" height="50" fill="none"><g clip-path="url(#E)"><path d="M9.161 16.243l-4.159-2.351 6.76-3.823 3.375-7.866L0 11.288v5.35l7.148 4.308 2.012-4.703z" fill="url(#A)"/><path d="M18.519 11.077l-2.012 4.703 4.159 2.351-6.759 3.825-3.375 7.866 15.136-9.086v-5.35l-7.149-4.307z" fill="url(#B)"/><path d="M17.436 2.444L5.1 31.368l2.715-1.628L20.568 0l-3.131 2.444z" fill="url(#C)"/></g><path fill-rule="evenodd" d="M36.871 20.002l1.071 1.069h7.566l1.071-1.069v-4.303l-2.142 2.138v1.069h-5.383V12.45h5.383v3.207l2.142-2.138v-2.138l-1.071-1.096h-7.566l-1.071 1.096v8.62zm52.732-7.551v-2.165h-5.234l-1.776 2.111v-2.111h-2.17v10.785.014h2.17v-4.29h4.054l2.007-2.165h-4.285l-1.776 2.138v-2.138-2.179h7.01zm1.072 8.62V10.285h2.169v10.785h-2.169zm-17.383-.014v-4.046l-3.77-2.693v-4.033h2.169v3.099l2.685 1.813 2.725-1.813v-3.099h2.142v4.019l-3.77 2.693v4.06h-2.183zm21.085-1.055l1.071 1.069h7.58l1.071-1.069v-5.115h-2.725l-2.577 2.165h3.145v1.854h-5.383V12.45h5.383v1.069l2.143-1.502v-.636l-1.072-1.096h-7.566l-1.071 1.096v8.62zm23.661-5.373h-2.739v-4.344h-2.142v4.317h-5.383v-4.317h-2.17v10.785h2.17v-4.29h5.383v4.29h2.142v-4.29h3.041l1.803-2.152h-2.105zm2.129-4.344h1.803 4.109v2.165h-3.756v8.62h-2.156v-4.493l1.641-1.976h-1.641V12.45l.014-.027h-.014v.027h-3.769v-2.165h3.769zm-51.295 9.716V13.52l-3.214-3.234h-2.508l-1.776 2.138v-2.138H59.19v10.785h8.637l1.071-1.069h-.027zm-7.498-1.123v-6.455h3.213l2.169 2.165v4.29h-5.383zm-3.715-6.401h.027l-.027.014v7.511l-1.071 1.069H49.02l-1.071-1.069v-8.62l1.071-1.096h.474.637 2.007.502 3.946l1.071 1.096v1.096zm-2.142-.027h-2.875-2.509v4.642l5.383-4.588v-.054zM50.2 18.905h5.315.014v-4.574L50.2 18.905z" fill="url(#D)"/><defs><linearGradient id="A" x1="7.564" y1="32.588" x2="7.564" y2="9.015" gradientUnits="userSpaceOnUse"><stop stop-color="#01f3e4"/><stop offset="1" stop-color="#fff"/></linearGradient><linearGradient id="B" x1="18.095" y1="41.464" x2="18.095" y2="17.889" gradientUnits="userSpaceOnUse"><stop stop-color="#01f3e4"/><stop offset="1" stop-color="#fff"/></linearGradient><linearGradient id="C" x1="12.829" y1="50.852" x2="12.829" y2="11.4" gradientUnits="userSpaceOnUse"><stop stop-color="#01f3e4"/><stop offset="1" stop-color="#fff"/></linearGradient><linearGradient id="D" x1="52.817" y1="14.597" x2="52.817" y2="26.724" gradientUnits="userSpaceOnUse"><stop stop-color="#fff"/><stop offset="1" stop-color="#01f3e4"/></linearGradient><clipPath id="E"><path fill="#fff" d="M0 0h25.664v31.368H0z"/></clipPath></defs></svg>